<?xml version="1.0" encoding="UTF-8" standalone="no" ?>
<!DOCTYPE svg PUBLIC "-//W3C//DTD SVG 1.1//EN" "http://www.w3.org/Graphics/SVG/1.1/DTD/svg11.dtd">
<svg xmlns="http://www.w3.org/2000/svg" xmlns:xlink="http://www.w3.org/1999/xlink" version="1.1" width="400" height="400" viewBox="0 0 400 400" xml:space="preserve">
<desc>Created with Fabric.js 3.6.2</desc>
<defs>
</defs>
<g transform="matrix(4 0 0 4 199.98 200)" id="VK_1_"  >
<path style="stroke: none; stroke-width: 1; stroke-dasharray: none; stroke-linecap: butt; stroke-dashoffset: 0; stroke-linejoin: miter; stroke-miterlimit: 4; fill: rgb(84,118,155); fill-rule: nonzero; opacity: 1;"  transform=" translate(-24.99, -25)" d="M 26 34 c 1 0 1 -1.4 1 -2 c 0 -1 1 -2 2 -2 s 2.7 1.7 4 3 c 1 1 1 1 2 1 s 3 0 3 0 s 2 -0.1 2 -2 c 0 -0.6 -0.7 -1.7 -3 -4 c -2 -2 -3 -1 0 -5 c 1.8 -2.5 3.2 -4.7 3 -5.3 c -0.2 -0.6 -5.3 -1.6 -6 -0.7 c -2 3 -2.4 3.7 -3 5 c -1 2 -1.1 3 -2 3 c -0.9 0 -1 -1.9 -1 -3 c 0 -3.3 0.5 -5.6 -1 -6 c 0 0 -2 0 -3 0 c -1.6 0 -3 1 -3 1 s -1.2 1 -1 1 c 0.3 0 2 -0.4 2 1 c 0 1 0 2 0 2 s 0 4 -1 4 c -1 0 -3 -4 -5 -7 c -0.8 -1.2 -1 -1 -2 -1 c -1.1 0 -2 0 -3 0 c -1 0 -1.1 0.6 -1 1 c 2 5 3.4 8.1 7.2 12.1 c 3.5 3.6 5.8 3.8 7.8 3.9 C 25.5 34 25 34 26 34 z" stroke-linecap="round" />
</g>
<g transform="matrix(4 0 0 4 200 200)" id="Layer_1"  >
<path style="stroke: none; stroke-width: 1; stroke-dasharray: none; stroke-linecap: butt; stroke-dashoffset: 0; stroke-linejoin: miter; stroke-miterlimit: 4; fill: rgb(84,118,155); fill-rule: nonzero; opacity: 1;"  transform=" translate(-25, -25)" d="M 25 1 C 11.7 1 1 11.7 1 25 s 10.7 24 24 24 s 24 -10.7 24 -24 S 38.3 1 25 1 z M 25 44 C 14.5 44 6 35.5 6 25 S 14.5 6 25 6 s 19 8.5 19 19 S 35.5 44 25 44 z" stroke-linecap="round" />
</g>
</svg>